Coordinates
version=1
nRows=27
nColumns=12
inDegrees=yes

Units are S.I. units (second, meters, Newtons, ...)
Angles are in degrees

endheader
time	SC_y	SC_z	SC_x	AC_y	AC_z	AC_x	GH_y	GH_z	GH_yy	EL_x	PS_y
       0.0              -54.13          6.135          12.84          55.22         -18.61          18.54         -142.8          34.85          85.15          27.68          96.96
   0.04242              -54.13          6.138          12.85          55.22         -18.61          18.53         -142.8          34.85          85.13          27.68          96.95
   0.08484              -54.13          6.141          12.86          55.21          -18.6          18.53         -142.8          34.85          85.11          27.68          96.94
    0.1273              -54.13          6.145          12.87          55.21          -18.6          18.53         -142.8          34.85          85.08          27.68          96.93
    0.1697              -54.12          6.148          12.88          55.21          -18.6          18.52         -142.8          34.84          85.06          27.68          96.91
    0.2121              -54.12          6.152           12.9          55.21          -18.6          18.52         -142.8          34.84          85.03          27.68           96.9
    0.2545              -54.12          6.157          12.91           55.2          -18.6          18.51         -142.8          34.84           85.0          27.68          96.88
    0.2969              -54.12          6.161          12.92           55.2         -18.59          18.51         -142.8          34.84          84.97          27.68          96.86
    0.3394              -54.12          6.166          12.94           55.2         -18.59           18.5         -142.8          34.84          84.94          27.68          96.85
    0.3818              -54.11          6.171          12.95          55.19         -18.59          18.49         -142.8          34.83           84.9          27.68          96.83
    0.4242              -54.11          6.177          12.97          55.19         -18.59          18.49         -142.8          34.83          84.86          27.68          96.81
    0.4666              -54.11          6.183          12.99          55.19         -18.58          18.48         -142.7          34.83          84.82          27.68          96.78
     0.509              -54.11          6.189          13.01          55.18         -18.58          18.47         -142.7          34.83          84.77          27.68          96.76
    0.5514               -54.1          6.196          13.03          55.18         -18.58          18.46         -142.7          34.82          84.72          27.68          96.73
    0.5939               -54.1          6.204          13.05          55.17         -18.57          18.45         -142.7          34.82          84.67          27.68           96.7
    0.6363               -54.1          6.212          13.08          55.17         -18.57          18.44         -142.7          34.82          84.61          27.68          96.67
    0.6787              -54.09          6.221          13.11          55.16         -18.57          18.43         -142.7          34.81          84.55          27.68          96.64
    0.7211              -54.09          6.231          13.14          55.15         -18.56          18.42         -142.7          34.81          84.49          27.68           96.6
    0.7635              -54.08          6.241          13.17          55.15         -18.56          18.41         -142.6           34.8          84.41          27.67          96.56
     0.806              -54.08          6.253           13.2          55.14         -18.55          18.39         -142.6           34.8          84.33          27.67          96.52
    0.8484              -54.07          6.266          13.24          55.13         -18.55          18.38         -142.6          34.79          84.24          27.67          96.47
    0.8908              -54.07           6.28          13.28          55.12         -18.54          18.36         -142.6          34.79          84.14          27.67          96.42
    0.9332              -54.06          6.295          13.33          55.11         -18.53          18.34         -142.5          34.78          84.04          27.67          96.36
    0.9756              -54.05          6.313          13.38           55.1         -18.52          18.32         -142.5          34.77          83.92          27.67          96.29
     1.018              -54.04          6.332          13.44          55.08         -18.52           18.3         -142.5          34.76          83.78          27.67          96.22
      1.06              -54.03          6.353          13.51          55.07         -18.51          18.27         -142.4          34.75          83.64          27.66          96.14
     1.103              -54.02          6.377          13.58          55.05         -18.49          18.24         -142.4          34.74          83.47          27.66          96.05
